# xmcd CD database file
#
# Track frame offsets:
#	150
#	22875
#	45825
#
# Disc length: 955 seconds
#
# Revision: 1
# Processed by: cddbd v1.5.1PL2 Copyright (c) Steve Scherf et al.
# Submitted via: freeDBTagger 0.8.2.1
#
DISCID=1203b903
DTITLE=Eminem - The Singles Boxset [CD4]
DYEAR=2003
DGENRE=misc
TTITLE0=Cleanin' Out My Closet
TTITLE1=Stimulate
TTITLE2=Cleanin' Out My Closet (Instru
EXTD=
EXTT0=
EXTT1=
EXTT2=
PLAYORDER=
